<svg xmlns="http://www.w3.org/2000/svg" viewBox="0 0 480 200" width="480" height="200" font-family="system-ui, sans-serif">
  <rect width="480" height="200" rx="10" fill="#f8f9fa" stroke="#dee2e6" stroke-width="1.5"/>

  <!-- Simulated page layout -->
  <rect x="30" y="24" width="280" height="16" rx="4" fill="#4a9eda" opacity="0.8"/>
  <rect x="30" y="52" width="140" height="10" rx="3" fill="#6c757d" opacity="0.5"/>
  <rect x="180" y="52" width="80" height="10" rx="3" fill="#28a745" opacity="0.4"/>
  <rect x="270" y="52" width="60" height="10" rx="3" fill="#868e96" opacity="0.4"/>

  <!-- Chip pills -->
  <rect x="30" y="74" width="80" height="18" rx="9" fill="#cfe2ff" stroke="#4a9eda" stroke-width="1"/>
  <text x="70" y="87" text-anchor="middle" font-size="10" fill="#084298">announcement</text>
  <rect x="120" y="74" width="60" height="18" rx="9" fill="#e9ecef" stroke="#adb5bd" stroke-width="1"/>
  <text x="150" y="87" text-anchor="middle" font-size="10" fill="#495057">markdown</text>

  <!-- Body text lines -->
  <rect x="30"  y="110" width="420" height="8" rx="3" fill="#adb5bd" opacity="0.5"/>
  <rect x="30"  y="126" width="400" height="8" rx="3" fill="#adb5bd" opacity="0.5"/>
  <rect x="30"  y="142" width="380" height="8" rx="3" fill="#adb5bd" opacity="0.5"/>
  <rect x="30"  y="158" width="310" height="8" rx="3" fill="#adb5bd" opacity="0.5"/>

  <!-- Label -->
  <text x="240" y="192" text-anchor="middle" font-size="11" fill="#6c757d">nlp-mdsite — rendered page preview</text>
</svg>
